<?xml version="1.0" encoding="UTF-8" standalone="no"?>
<!DOCTYPE svg PUBLIC "-//W3C//DTD SVG 1.1//EN" "http://www.w3.org/Graphics/SVG/1.1/DTD/svg11.dtd">
<svg width="100%" height="100%" viewBox="0 0 1129 678" version="1.1" xmlns="http://www.w3.org/2000/svg" xmlns:xlink="http://www.w3.org/1999/xlink" xml:space="preserve" xmlns:serif="http://www.serif.com/" style="fill-rule:evenodd;clip-rule:evenodd;stroke-linejoin:round;stroke-miterlimit:2;">
    <g transform="matrix(1,0,0,1,-2222.460833,-6951.910416)">
        <g transform="matrix(4.166667,0,0,4.166667,0,0)">
            <g id="Logo-cool" serif:id="Logo cool">
                <g transform="matrix(1,0,0,1,679.1398,1709.9606)">
                    <path d="M0,-5.794C-0.089,-5.707 -0.179,-5.603 -0.271,-5.487C-0.521,-5.174 -0.78,-4.756 -1.028,-4.194C-1.068,-4.1 -1.109,-4.001 -1.15,-3.898C-1.189,-3.804 -1.226,-3.707 -1.263,-3.606C-1.308,-3.482 -1.352,-3.358 -1.396,-3.223L-2.443,0L-4.322,0L-4.322,-1.672L-3.783,-3.322C-3.749,-3.43 -3.719,-3.535 -3.693,-3.639C-3.664,-3.744 -3.641,-3.847 -3.62,-3.946C-3.599,-4.052 -3.581,-4.155 -3.567,-4.254C-3.54,-4.435 -3.524,-4.609 -3.524,-4.77C-3.524,-5.053 -3.57,-5.287 -3.641,-5.487C-3.682,-5.601 -3.728,-5.705 -3.783,-5.794L0,-5.794Z" style="fill:rgb(30,29,29);fill-rule:nonzero;"/>
                </g>
                <g transform="matrix(1,0,0,1,675.8884,1715.7377)">
                    <path d="M0,-3.289L-1.07,0L-1.07,-3.289L0,-3.289Z" style="fill:rgb(30,29,29);fill-rule:nonzero;"/>
                </g>
                <g transform="matrix(1,0,0,1,670.934,1715.1732)">
                    <path d="M0,-7.849L0,0.736C0,0.81 -0.003,0.878 -0.005,0.949C-0.014,1.236 -0.039,1.493 -0.076,1.718L-2.412,-5.354L-5.346,3.158L-7.945,3.158L-11.87,-8.551C-12.301,-9.819 -12.804,-10.567 -13.254,-11.007L-8.294,-11.007C-8.427,-10.776 -8.519,-10.461 -8.519,-10.028C-8.519,-9.577 -8.424,-9.072 -8.234,-8.528L-5.897,-1.488L-3.333,-8.407L-3.528,-8.935C-3.905,-9.972 -4.251,-10.613 -4.538,-11.007L-0.216,-11.007C-0.246,-10.962 -0.271,-10.913 -0.296,-10.863C-0.349,-10.759 -0.397,-10.647 -0.431,-10.519C-0.478,-10.342 -0.507,-10.144 -0.507,-9.919C-0.507,-9.55 -0.416,-9.111 -0.225,-8.533L0,-7.849Z" style="fill:rgb(30,29,29);fill-rule:nonzero;"/>
                </g>
                <g transform="matrix(1,0,0,1,678.5286,1712.5265)">
                    <path d="M0,-2.555L0,-0.069C-0.314,-0.246 -0.785,-0.386 -1.49,-0.386L-4.019,-0.386L-4.019,3.494C-4.019,3.707 -4.008,3.898 -3.994,4.081C-3.973,4.34 -3.939,4.57 -3.895,4.774C-3.795,5.233 -3.647,5.568 -3.48,5.805L-7.908,5.805C-7.818,5.69 -7.733,5.552 -7.657,5.39C-7.591,5.256 -7.532,5.105 -7.483,4.935C-7.43,4.76 -7.387,4.559 -7.354,4.34C-7.313,4.06 -7.286,3.744 -7.286,3.383L-7.286,-6.049C-7.286,-6.887 -7.456,-7.481 -7.692,-7.91C-7.623,-8.106 -7.524,-8.252 -7.417,-8.36L-3.562,-8.36C-3.485,-8.28 -3.416,-8.179 -3.358,-8.053C-3.276,-7.871 -3.22,-7.639 -3.22,-7.336C-3.22,-7.183 -3.236,-7.01 -3.264,-6.82C-3.28,-6.723 -3.299,-6.62 -3.322,-6.512L-4.019,-6.512L-4.019,-2.257L-1.513,-2.257C-0.792,-2.257 -0.315,-2.387 0,-2.555" style="fill:rgb(30,29,29);fill-rule:nonzero;"/>
                </g>
                <g transform="matrix(1,0,0,1,679.9266,1707.1366)">
                    <path d="M0,-2.97L0,0C-0.353,-0.461 -0.863,-0.845 -1.627,-1.021C-1.588,-1.12 -1.547,-1.218 -1.504,-1.308C-1.219,-1.941 -0.923,-2.371 -0.656,-2.663C-0.539,-2.789 -0.427,-2.89 -0.322,-2.97L0,-2.97Z" style="fill:rgb(30,29,29);fill-rule:nonzero;"/>
                </g>
                <g transform="matrix(1,0,0,1,668.7819,1826.1044)">
                    <path d="M0,-152.968C-1.164,-152.968 -2.328,-152.668 -3.366,-152.068L-129.156,-79.43C-130.287,-78.777 -130.963,-77.607 -130.963,-76.301C-130.963,-74.994 -130.287,-73.824 -129.156,-73.17L-3.366,-0.532C-1.289,0.668 1.291,0.667 3.365,-0.532L129.169,-73.17C130.3,-73.824 130.976,-74.994 130.976,-76.301C130.976,-77.607 130.3,-78.777 129.169,-79.43L3.365,-152.069C2.327,-152.668 1.163,-152.968 0,-152.968M0,1.838C-1.419,1.838 -2.837,1.473 -4.102,0.741L-129.892,-71.897C-131.484,-72.815 -132.435,-74.462 -132.435,-76.301C-132.435,-78.139 -131.484,-79.786 -129.892,-80.705L-4.102,-153.343C-1.574,-154.803 1.569,-154.806 4.1,-153.344L129.905,-80.705C131.497,-79.786 132.447,-78.139 132.447,-76.301C132.447,-74.462 131.497,-72.815 129.905,-71.897L4.1,0.741C2.836,1.473 1.417,1.838 0,1.838" style="fill:rgb(30,29,29);fill-rule:nonzero;"/>
                </g>
                <g transform="matrix(1,0,0,1,665.2606,1670.4885)">
                    <path d="M0,158.25C2.169,159.502 4.869,159.505 7.041,158.25L134.306,84.768C136.276,83.63 137.453,81.592 137.453,79.315C137.453,77.039 136.276,75.001 134.306,73.862L7.041,0.381C4.872,-0.873 2.172,-0.874 0,0.381L-127.25,73.863C-129.221,75.001 -130.398,77.039 -130.398,79.315C-130.398,81.592 -129.221,83.63 -127.25,84.768L0,158.25ZM3.52,160.66C2.048,160.66 0.576,160.282 -0.736,159.523L-127.986,86.042C-130.418,84.639 -131.87,82.124 -131.87,79.315C-131.87,76.507 -130.418,73.992 -127.986,72.588L-0.736,-0.893C1.887,-2.408 5.151,-2.41 7.777,-0.893L135.042,72.588C137.474,73.992 138.925,76.508 138.925,79.315C138.925,82.124 137.474,84.639 135.042,86.042L7.777,159.523C6.465,160.281 4.993,160.66 3.52,160.66" style="fill:rgb(30,29,29);fill-rule:nonzero;"/>
                </g>
                <g transform="matrix(1,0,0,1,604.8116,1761.5541)">
                    <path d="M0,-27.779L8.929,-30.807L10.957,-31.263C10.642,-31.148 8.344,-29.138 7.888,-23.874L5.823,-1.716L4.098,-1.3L0.191,-0.424L-7.837,-12.678L-9.566,1.644L-11.215,2.212L-16.765,3.484L-27.321,-16.013C-29.969,-20.309 -32.106,-20.331 -32.53,-20.319L-27.925,-22.355L-21.535,-23.821L-19.882,-24.237C-20.116,-24.141 -21.234,-22.568 -20.77,-20.543C-20.621,-19.895 -20.304,-19.072 -19.698,-18.102L-13.329,-7.623L-11.787,-19.49L-12.247,-20.195C-14.557,-23.759 -15.781,-24.075 -16.002,-24.109L-6.667,-27.23L-4.766,-27.725C-4.999,-27.629 -6.6,-25.882 -6.099,-23.694C-5.96,-23.086 -5.621,-22.354 -5.074,-21.456L1.245,-11.008L2.34,-23.156C2.431,-24.243 2.367,-25.081 2.219,-25.729C1.754,-27.755 0.333,-27.813 0,-27.779" style="fill:rgb(30,29,29);fill-rule:nonzero;"/>
                </g>
                <g transform="matrix(1,0,0,1,654.8895,1727.4677)">
                    <path d="M0,28.888C-3.281,29.028 -6.594,28.38 -8.766,27.224L-10.865,17.878L-10.213,16.679C-7.783,20.985 -3.412,24 -0.214,23.863C2.194,23.76 3.897,22.731 3.829,21.153C3.721,18.62 -0.266,17.792 -3.876,16.074C-6.637,14.736 -9.257,12.81 -9.417,9.073C-9.664,3.3 -4.97,0.229 0.844,-0.019C3.668,-0.14 6.481,0.844 8.146,1.854L8.48,9.646C7.818,9.178 7.207,8.764 6.658,8.351C5.729,6.345 2.712,4.851 0.723,4.936C-1.851,5.047 -2.804,6.127 -2.748,7.414C-2.668,9.283 -0.218,10.177 2.616,11.262C6.339,12.725 10.581,14.624 10.803,19.815C11.053,25.67 6.021,28.631 0,28.888" style="fill:rgb(30,29,29);fill-rule:nonzero;"/>
                </g>
                <g transform="matrix(1,0,0,1,683.6199,1750.8747)">
                    <path d="M0,-19.02L-4.736,-19.151L-4.925,-11.555L-0.812,-11.441C-0.051,-11.42 0.84,-12.926 0.911,-13.386C1.605,-13.433 2.047,-13.559 2.566,-13.642L2.356,-5.002C2.138,-5.127 1.726,-5.331 0.701,-5.825C0.517,-6.848 -0.116,-7.73 -0.9,-7.751L-5.054,-7.867L-5.239,-0.213C-5.36,4.107 -2.494,4.112 -1.82,4.282L-4.857,4.166L-15.062,3.797C-14.728,3.764 -12.633,3.989 -12.505,-0.623L-12.015,-18.28C-11.895,-22.601 -14.414,-23.211 -14.787,-23.263L5.547,-23.302L5.295,-14.206C4.624,-14.453 4.253,-14.558 3.569,-14.809C3.35,-16.601 2.031,-18.964 0,-19.02" style="fill:rgb(30,29,29);fill-rule:nonzero;"/>
                </g>
                <g transform="matrix(1,0,0,1,709.7841,1728.3283)">
                    <path d="M0,29.195L-1.467,29.028L-20.182,27.173C-19.847,27.165 -17.366,27.262 -16.877,22.382L-15.162,5.261C-14.723,0.877 -17.274,0.079 -17.642,0L0.98,1.454L2.639,1.568L1.476,11.024C1.042,10.657 0.636,10.406 0.127,9.973C-0.079,7.991 -1.003,5.53 -2.991,5.331L-7.789,4.85L-8.567,12.396L-4.224,12.831C-3.455,12.908 -2.8,12.264 -2.417,11.18C-1.172,11.28 -0.957,11.303 -0.753,11.327L-1.595,18.73C-1.595,18.73 -2.337,18.673 -3.163,18.624C-3.234,17.617 -3.801,16.99 -4.606,16.909L-9.031,16.466L-9.715,23.852L-4.421,24.382C-2.245,24.6 -0.369,22.487 0.923,20.37C1.533,20.324 1.842,20.298 2.746,20.143L0,29.195Z" style="fill:rgb(30,29,29);fill-rule:nonzero;"/>
                </g>
                <g transform="matrix(1,0,0,1,722.2287,1732.5254)">
                    <path d="M0,28.003C-3.233,27.432 -6.328,26.083 -8.198,24.487L-8.4,15.311L-7.656,14.247C-6.213,18.975 -2.276,22.495 0.875,23.052C3.249,23.471 5.133,22.833 5.408,21.278C5.849,18.782 2.135,17.113 -1.018,14.657C-3.425,12.755 -5.567,10.308 -4.917,6.625C-3.912,0.937 1.335,-1.048 7.064,-0.036C9.846,0.456 12.064,2.373 13.472,3.719L11.735,12.008C11.357,10.958 11.185,10.615 10.765,9.749C10.055,7.358 7.514,5.066 5.876,4.776C3.339,4.328 2.176,5.178 1.951,6.446C1.626,8.288 3.826,9.689 6.358,11.36C9.677,13.592 13.408,16.361 12.505,21.477C11.485,27.247 5.934,29.051 0,28.003" style="fill:rgb(30,29,29);fill-rule:nonzero;"/>
                </g>
                <g transform="matrix(1,0,0,1,765.8543,1760.5629)">
                    <path d="M0,-19.004L-1.645,-9.893C-2.253,-10.448 -2.45,-10.609 -3.188,-11.123M-1.645,-9.893C-2.291,-10.52 -2.45,-10.609 -3.188,-11.123C-3.225,-12.726 -3.692,-15.498 -5.555,-15.98L-9.387,-16.91L-13.958,0.738C-15.125,5.244 -13.292,6.015 -13.021,6.128L-24.325,2.952C-23.872,3.027 -22.194,3.198 -21.08,-1.107L-16.508,-18.759L-21.12,-19.997C-23.655,-20.654 -25.286,-18.683 -26.49,-17.02L-26.529,-17.031L-28.214,-17.605L-23.659,-25.132L0,-19.004L-1.645,-9.893Z" style="fill:rgb(30,29,29);fill-rule:nonzero;"/>
                </g>
                <g transform="matrix(1,0,0,1,632.0615,1774.0929)">
                    <path d="M0,-6.442L-3.258,-6.442L-3.258,-4.275L-0.204,-4.275L-0.204,-2.647L-3.258,-2.647L-3.258,1.629L-5.148,1.629L-5.148,-8.071L0,-8.071L0,-6.442Z" style="fill:rgb(30,29,29);fill-rule:nonzero;"/>
                </g>
                <g transform="matrix(-1,0,0,1,1269.273,1683.454)">
                    <rect x="633.691" y="82.568" width="1.891" height="9.7" style="fill:rgb(30,29,29);"/>
                </g>
                <g transform="matrix(1,0,0,1,639.6839,1775.7221)">
                    <path d="M0,-9.7L0,-1.629L2.996,-1.629L2.996,0L-1.891,0L-1.891,-9.7L0,-9.7Z" style="fill:rgb(30,29,29);fill-rule:nonzero;"/>
                </g>
                <g transform="matrix(1,0,0,1,645.2988,1775.7221)">
                    <path d="M0,-9.7L1.367,-9.7L3.941,-3.534L6.631,-9.7L7.999,-9.7L9.627,0L7.708,0L6.835,-5.977L4.232,0L3.592,0L1.105,-5.977L0.116,0L-1.803,0L0,-9.7Z" style="fill:rgb(30,29,29);fill-rule:nonzero;"/>
                </g>
                <g transform="matrix(1,0,0,1,661.7923,1774.0929)">
                    <path d="M0,-6.442L-3.258,-6.442L-3.258,-4.275L-0.204,-4.275L-0.204,-2.647L-3.258,-2.647L-3.258,1.629L-5.148,1.629L-5.148,-8.071L0,-8.071L0,-6.442Z" style="fill:rgb(30,29,29);fill-rule:nonzero;"/>
                </g>
                <g transform="matrix(1,0,0,1,668.8033,1774.0929)">
                    <path d="M0,-6.442L-3.49,-6.442L-3.49,-4.275L-0.145,-4.275L-0.145,-2.647L-3.49,-2.647L-3.49,0L0,0L0,1.629L-5.381,1.629L-5.381,-8.071L0,-8.071L0,-6.442Z" style="fill:rgb(30,29,29);fill-rule:nonzero;"/>
                </g>
                <g transform="matrix(1,0,0,1,675.407,1773.5106)">
                    <path d="M0,-5.278C-0.567,-6.034 -1.236,-6.107 -1.586,-6.107C-2.603,-6.107 -2.923,-5.467 -2.923,-4.973C-2.923,-4.74 -2.85,-4.522 -2.618,-4.319C-2.385,-4.1 -2.065,-3.984 -1.454,-3.766C-0.698,-3.504 0.015,-3.242 0.509,-2.792C0.946,-2.399 1.338,-1.744 1.338,-0.756C1.338,1.135 -0.029,2.429 -2.036,2.429C-3.824,2.429 -4.871,1.339 -5.381,0.597L-4.145,-0.581C-3.68,0.365 -2.792,0.714 -2.109,0.714C-1.251,0.714 -0.611,0.19 -0.611,-0.624C-0.611,-0.973 -0.727,-1.25 -0.989,-1.497C-1.353,-1.832 -1.935,-2.02 -2.486,-2.21C-2.996,-2.384 -3.607,-2.617 -4.101,-3.053C-4.421,-3.33 -4.871,-3.868 -4.871,-4.857C-4.871,-6.282 -3.912,-7.707 -1.76,-7.707C-1.149,-7.707 0,-7.591 0.989,-6.573L0,-5.278Z" style="fill:rgb(30,29,29);fill-rule:nonzero;"/>
                </g>
                <g transform="matrix(1,0,0,1,681.3128,1774.0929)">
                    <path d="M0,-6.442L0,1.629L-1.891,1.629L-1.891,-6.442L-4.072,-6.442L-4.072,-8.071L2.181,-8.071L2.181,-6.442L0,-6.442Z" style="fill:rgb(30,29,29);fill-rule:nonzero;"/>
                </g>
                <g transform="matrix(-1,0,0,1,1371.265,1683.454)">
                    <rect x="684.687" y="82.568" width="1.891" height="9.7" style="fill:rgb(30,29,29);"/>
                </g>
                <g transform="matrix(1,0,0,1,689.778,1775.7221)">
                    <path d="M0,-9.7L2.589,-3.185L5.177,-9.7L7.242,-9.7L3.141,0L2.007,0L-2.065,-9.7L0,-9.7Z" style="fill:rgb(30,29,29);fill-rule:nonzero;"/>
                </g>
                <g transform="matrix(1,0,0,1,702.4471,1769.6002)">
                    <path d="M0,2.544L-1.382,-0.946L-2.764,2.544L0,2.544ZM0.552,4.086L-3.36,4.086L-4.218,6.122L-6.268,6.122L-2.094,-3.578L-0.611,-3.578L3.446,6.122L1.41,6.122L0.552,4.086Z" style="fill:rgb(30,29,29);fill-rule:nonzero;"/>
                </g>
                <g transform="matrix(1,0,0,1,708.9204,1775.7221)">
                    <path d="M0,-9.7L0,-1.629L2.996,-1.629L2.996,0L-1.891,0L-1.891,-9.7L0,-9.7Z" style="fill:rgb(30,29,29);fill-rule:nonzero;"/>
                </g>
                <g transform="matrix(1,0,0,1,603.087,1762.5954)">
                    <path d="M0,-29.405L10.654,-31.848C10.34,-31.734 8.344,-30.764 7.888,-25.5L5.823,-2.342L0.191,-1.05L-7.837,-14.304L-9.491,1.17L-15.041,2.443L-27.321,-17.639C-29.969,-21.935 -32.106,-21.957 -32.53,-21.945L-19.81,-24.862C-20.043,-24.766 -21.234,-24.194 -20.77,-22.169C-20.621,-21.521 -20.304,-20.698 -19.698,-19.728L-13.329,-9.249L-11.787,-21.116L-12.247,-21.821C-14.557,-25.385 -15.781,-25.701 -16.002,-25.735L-4.943,-28.272C-5.176,-28.175 -6.6,-27.508 -6.099,-25.32C-5.96,-24.712 -5.621,-23.98 -5.074,-23.082L1.245,-12.634L2.34,-24.782C2.431,-25.869 2.367,-26.707 2.219,-27.355C1.754,-29.381 0.333,-29.439 0,-29.405" style="fill:rgb(222,37,38);fill-rule:nonzero;"/>
                </g>
                <g transform="matrix(1,0,0,1,653.1649,1726.883)">
                    <path d="M0,28.888C-3.281,29.028 -6.594,28.38 -8.766,27.224L-9.14,18.463C-6.71,22.768 -3.412,24 -0.214,23.863C2.194,23.76 3.897,22.731 3.829,21.153C3.721,18.62 -0.267,17.792 -3.876,16.074C-6.637,14.736 -9.257,12.81 -9.417,9.073C-9.664,3.3 -4.97,0.229 0.844,-0.019C3.668,-0.14 6.401,0.534 8.066,1.544L8.383,8.935C6.909,6.585 3.547,4.816 0.723,4.936C-1.851,5.047 -2.804,6.127 -2.748,7.414C-2.668,9.283 -0.218,10.177 2.616,11.262C6.339,12.725 10.581,14.624 10.803,19.815C11.053,25.67 6.021,28.631 0,28.888" style="fill:rgb(222,37,38);fill-rule:nonzero;"/>
                </g>
                <g transform="matrix(1,0,0,1,681.8954,1750.016)">
                    <path d="M0,-17.964L-4.736,-18.095L-4.925,-11.281L-0.812,-11.167C2.137,-11.086 2.587,-12.279 2.635,-12.527L2.426,-4.966C2.388,-5.133 1.967,-6.434 -0.9,-6.513L-5.054,-6.628L-5.24,0.061C-5.36,4.382 -3.588,4.971 -3.132,5.025L-15.139,4.692C-14.805,4.66 -12.633,4.263 -12.505,-0.349L-12.015,-18.006C-11.895,-22.327 -14.414,-22.937 -14.787,-22.989L5.529,-22.426L5.294,-13.95C4.718,-15.671 3.656,-17.863 0,-17.964" style="fill:rgb(222,37,38);fill-rule:nonzero;"/>
                </g>
                <g transform="matrix(1,0,0,1,708.3362,1727.7432)">
                    <path d="M0,29.615L-20.182,27.593C-19.847,27.585 -17.643,27.263 -17.154,22.383L-15.438,5.262C-14.999,0.878 -17.551,0.079 -17.919,0L2.428,2.039L1.575,10.558C1.149,8.552 0.231,6.455 -3.367,6.095L-8.164,5.614L-8.843,12.397L-4.501,12.832C-1.648,13.118 -1.076,12.005 -0.969,11.765L-1.715,19.209C-1.715,19.209 -1.78,17.783 -4.882,17.472L-9.307,17.029L-9.991,23.852L-4.698,24.383C-1.265,24.727 0.381,23.722 2.371,20.955L0,29.615Z" style="fill:rgb(222,37,38);fill-rule:nonzero;"/>
                </g>
                <g transform="matrix(1,0,0,1,642.3258,1730.7209)">
                    <path d="M0,25.069L-1.61,25.271L-20.284,27.497C-19.959,27.417 -17.515,26.977 -18.09,22.106L-20.108,5.018C-20.625,0.642 -23.289,0.413 -23.665,0.416L-5.167,-2.182L-3.524,-2.428L-2.619,7.056C-3.122,6.791 -3.573,6.633 -4.163,6.321C-4.792,4.43 -6.225,2.226 -8.21,2.46L-12.998,3.026L-12.13,10.562L-7.795,10.05C-7.028,9.96 -6.527,9.189 -6.386,8.048C-5.15,7.878 -4.935,7.853 -4.731,7.833L-3.956,15.243C-3.956,15.243 -4.693,15.348 -5.509,15.478C-5.797,14.51 -6.485,14.02 -7.288,14.115L-11.705,14.637L-10.779,21.996L-5.496,21.372C-3.325,21.116 -1.948,18.648 -1.143,16.302C-0.558,16.125 -0.262,16.033 0.588,15.687L0,25.069Z" style="fill:rgb(30,29,29);fill-rule:nonzero;"/>
                </g>
                <g transform="matrix(1,0,0,1,640.7353,1730.9178)">
                    <path d="M0,25.072L-20.143,27.451C-19.818,27.371 -17.735,26.581 -18.31,21.71L-20.328,4.622C-20.845,0.247 -23.508,0.017 -23.885,0.02L-3.577,-2.379L-2.573,6.124C-3.421,4.257 -4.77,2.408 -8.36,2.832L-13.149,3.397L-12.349,10.166L-8.015,9.655C-5.167,9.318 -4.849,8.109 -4.796,7.851L-3.919,15.281C-3.919,15.281 -4.291,13.902 -7.387,14.268L-11.803,14.79L-10.999,21.6L-5.716,20.976C-2.29,20.571 -0.899,19.235 0.447,16.105L0,25.072Z" style="fill:rgb(222,37,38);fill-rule:nonzero;"/>
                </g>
                <g transform="matrix(1,0,0,1,720.5041,1731.9407)">
                    <path d="M0,28.003C-3.233,27.432 -6.328,26.083 -8.198,24.487L-6.673,15.852C-5.229,20.58 -2.276,22.495 0.875,23.052C3.249,23.471 5.133,22.833 5.408,21.278C5.849,18.782 2.135,17.113 -1.018,14.657C-3.425,12.755 -5.567,10.308 -4.917,6.625C-3.912,0.937 1.335,-1.048 7.064,-0.036C9.846,0.456 12.369,1.703 13.777,3.049L12.49,10.334C11.559,7.721 8.659,5.268 5.876,4.776C3.339,4.328 2.176,5.178 1.951,6.446C1.626,8.288 3.826,9.689 6.358,11.36C9.677,13.592 13.408,16.361 12.505,21.477C11.485,27.247 5.934,29.051 0,28.003" style="fill:rgb(222,37,38);fill-rule:nonzero;"/>
                </g>
                <g transform="matrix(1,0,0,1,762.6667,1751.6048)">
                    <path d="M0,-2.165C-0.285,-4.214 -0.699,-6.425 -4.201,-7.331L-7.982,-8.311L-12.495,9.111C-13.662,13.617 -11.824,14.48 -11.553,14.593L-23.06,11.612C-22.608,11.687 -20.731,11.572 -19.617,7.267L-15.104,-10.156L-19.852,-11.385C-22.387,-12.042 -23.823,-10.31 -25.026,-8.647L-25.066,-8.657L-22.196,-16.758L1.463,-10.631L0,-2.165Z" style="fill:rgb(222,37,38);fill-rule:nonzero;"/>
                </g>
            </g>
        </g>
    </g>
</svg>
