<svg clip-rule="evenodd" fill-rule="evenodd" stroke-linejoin="round" stroke-miterlimit="2" viewBox="0 0 1129 678" xmlns="http://www.w3.org/2000/svg"><g fill="#1e1d1d"><path d="m0-5.794c-.089.087-.179.191-.271.307-.25.313-.509.731-.757 1.293-.04.094-.081.193-.122.296-.039.094-.076.191-.113.292-.045.124-.089.248-.133.383l-1.047 3.223h-1.879v-1.672l.539-1.65c.034-.108.064-.213.09-.317.029-.105.052-.208.073-.307.021-.106.039-.209.053-.308.027-.181.043-.355.043-.516 0-.283-.046-.517-.117-.717-.041-.114-.087-.218-.142-.307z" fill-rule="nonzero" transform="matrix(4.166667 0 0 4.166667 607.2885600466 172.9259873202)"/><path d="m0-3.289-1.07 3.289v-3.289z" fill-rule="nonzero" transform="matrix(4.166667 0 0 4.166667 593.7410589628 196.9972392459)"/><path d="m0-7.849v8.585c0 .074-.003.142-.005.213-.009.287-.034.544-.071.769l-2.336-7.072-2.934 8.512h-2.599l-3.925-11.709c-.431-1.268-.934-2.016-1.384-2.456h4.96c-.133.231-.225.546-.225.979 0 .451.095.956.285 1.5l2.337 7.04 2.564-6.919-.195-.528c-.377-1.037-.723-1.678-1.01-2.072h4.322c-.03.045-.055.094-.08.144-.053.104-.101.216-.135.344-.047.177-.076.375-.076.6 0 .369.091.808.282 1.386z" fill-rule="nonzero" transform="matrix(4.166667 0 0 4.166667 573.097723978 194.6451557244)"/><path d="m0-2.555v2.486c-.314-.177-.785-.317-1.49-.317h-2.529v3.88c0 .213.011.404.025.587.021.259.055.489.099.693.1.459.248.794.415 1.031h-4.428c.09-.115.175-.253.251-.415.066-.134.125-.285.174-.455.053-.175.096-.376.129-.595.041-.28.068-.596.068-.957v-9.432c0-.838-.17-1.432-.406-1.861.069-.196.168-.342.275-.45h3.855c.077.08.146.181.204.307.082.182.138.414.138.717 0 .153-.016.326-.044.516-.016.097-.035.2-.058.308h-.697v4.255h2.506c.721 0 1.198-.13 1.513-.298" fill-rule="nonzero" transform="matrix(4.166667 0 0 4.166667 604.7418931762 183.6172381755)"/><path d="m0-2.97v2.97c-.353-.461-.863-.845-1.627-1.021.039-.099.08-.197.123-.287.285-.633.581-1.063.848-1.355.117-.126.229-.227.334-.307z" fill-rule="nonzero" transform="matrix(4.166667 0 0 4.166667 610.5668936422 161.1593197122)"/><path d="m0-152.968c-1.164 0-2.328.3-3.366.9l-125.79 72.638c-1.131.653-1.807 1.823-1.807 3.129 0 1.307.676 2.477 1.807 3.131l125.79 72.638c2.077 1.2 4.657 1.199 6.731 0l125.804-72.638c1.131-.654 1.807-1.824 1.807-3.131 0-1.306-.676-2.476-1.807-3.129l-125.804-72.639c-1.038-.599-2.202-.899-3.365-.899m0 154.806c-1.419 0-2.837-.365-4.102-1.097l-125.79-72.638c-1.592-.918-2.543-2.565-2.543-4.404 0-1.838.951-3.485 2.543-4.404l125.79-72.638c2.528-1.46 5.671-1.463 8.202-.001l125.805 72.639c1.592.919 2.542 2.566 2.542 4.404 0 1.839-.95 3.486-2.542 4.404l-125.805 72.638c-1.264.732-2.683 1.097-4.1 1.097" fill-rule="nonzero" transform="matrix(4.166667 0 0 4.166667 564.1306399273 656.8585260348)"/><path d="m0 158.25c2.169 1.252 4.869 1.255 7.041 0l127.265-73.482c1.97-1.138 3.147-3.176 3.147-5.453 0-2.276-1.177-4.314-3.147-5.453l-127.265-73.481c-2.169-1.254-4.869-1.255-7.041 0l-127.25 73.482c-1.971 1.138-3.148 3.176-3.148 5.452 0 2.277 1.177 4.315 3.148 5.453zm3.52 2.41c-1.472 0-2.944-.378-4.256-1.137l-127.25-73.481c-2.432-1.403-3.884-3.918-3.884-6.727 0-2.808 1.452-5.323 3.884-6.727l127.25-73.481c2.623-1.515 5.887-1.517 8.513 0l127.265 73.481c2.432 1.404 3.883 3.92 3.883 6.727 0 2.809-1.451 5.324-3.883 6.727l-127.265 73.481c-1.312.758-2.784 1.137-4.257 1.137" fill-rule="nonzero" transform="matrix(4.166667 0 0 4.166667 549.4585554202 8.4588908295)"/><path d="m0-27.779 8.929-3.028 2.028-.456c-.315.115-2.613 2.125-3.069 7.389l-2.065 22.158-1.725.416-3.907.876-8.028-12.254-1.729 14.322-1.649.568-5.55 1.272-10.556-19.497c-2.648-4.296-4.785-4.318-5.209-4.306l4.605-2.036 6.39-1.466 1.653-.416c-.234.096-1.352 1.669-.888 3.694.149.648.466 1.471 1.072 2.441l6.369 10.479 1.542-11.867-.46-.705c-2.31-3.564-3.534-3.88-3.755-3.914l9.335-3.121 1.901-.495c-.233.096-1.834 1.843-1.333 4.031.139.608.478 1.34 1.025 2.238l6.319 10.448 1.095-12.148c.091-1.087.027-1.925-.121-2.573-.465-2.026-1.886-2.084-2.219-2.05" fill-rule="nonzero" transform="matrix(4.166667 0 0 4.166667 297.5877019372 387.8989211847)"/><path d="m0 28.888c-3.281.14-6.594-.508-8.766-1.664l-2.099-9.346.652-1.199c2.43 4.306 6.801 7.321 9.999 7.184 2.408-.103 4.111-1.132 4.043-2.71-.108-2.533-4.095-3.361-7.705-5.079-2.761-1.338-5.381-3.264-5.541-7.001-.247-5.773 4.447-8.844 10.261-9.092 2.824-.121 5.637.863 7.302 1.873l.334 7.792c-.662-.468-1.273-.882-1.822-1.295-.929-2.006-3.946-3.5-5.935-3.415-2.574.111-3.527 1.191-3.471 2.478.08 1.869 2.53 2.763 5.364 3.848 3.723 1.463 7.965 3.362 8.187 8.553.25 5.855-4.782 8.816-10.803 9.073" fill-rule="nonzero" transform="matrix(4.166667 0 0 4.166667 506.2456352965 245.8722431559)"/><path d="m0-19.02-4.736-.131-.189 7.596 4.113.114c.761.021 1.652-1.485 1.723-1.945.694-.047 1.136-.173 1.655-.256l-.21 8.64c-.218-.125-.63-.329-1.655-.823-.184-1.023-.817-1.905-1.601-1.926l-4.154-.116-.185 7.654c-.121 4.32 2.745 4.325 3.419 4.495l-3.037-.116-10.205-.369c.334-.033 2.429.192 2.557-4.42l.49-17.657c.12-4.321-2.399-4.931-2.772-4.983l20.334-.039-.252 9.096c-.671-.247-1.042-.352-1.726-.603-.219-1.792-1.538-4.155-3.569-4.211" fill-rule="nonzero" transform="matrix(4.166667 0 0 4.166667 625.9556448733 343.4014176249)"/><path d="m0 29.195-1.467-.167-18.715-1.855c.335-.008 2.816.089 3.305-4.791l1.715-17.121c.439-4.384-2.112-5.182-2.48-5.261l18.622 1.454 1.659.114-1.163 9.456c-.434-.367-.84-.618-1.349-1.051-.206-1.982-1.13-4.443-3.118-4.642l-4.798-.481-.778 7.546 4.343.435c.769.077 1.424-.567 1.807-1.651 1.245.1 1.46.123 1.664.147l-.842 7.403s-.742-.057-1.568-.106c-.071-1.007-.638-1.634-1.443-1.715l-4.425-.443-.684 7.386 5.294.53c2.176.218 4.052-1.895 5.344-4.012.61-.046.919-.072 1.823-.227z" fill-rule="nonzero" transform="matrix(4.166667 0 0 4.166667 734.9731535947 249.4580767761)"/><path d="m0 28.003c-3.233-.571-6.328-1.92-8.198-3.516l-.202-9.176.744-1.064c1.443 4.728 5.38 8.248 8.531 8.805 2.374.419 4.258-.219 4.533-1.774.441-2.496-3.273-4.165-6.426-6.621-2.407-1.902-4.549-4.349-3.899-8.032 1.005-5.688 6.252-7.673 11.981-6.661 2.782.492 5 2.409 6.408 3.755l-1.737 8.289c-.378-1.05-.55-1.393-.97-2.259-.71-2.391-3.251-4.683-4.889-4.973-2.537-.448-3.7.402-3.925 1.67-.325 1.842 1.875 3.243 4.407 4.914 3.319 2.232 7.05 5.001 6.147 10.117-1.02 5.77-6.571 7.574-12.505 6.526" fill-rule="nonzero" transform="matrix(4.166667 0 0 4.166667 786.8256577429 266.9459948418)"/><path d="m0-19.004-1.645 9.111c-.608-.555-.805-.716-1.543-1.23m1.543 1.23c-.646-.627-.805-.716-1.543-1.23-.037-1.603-.504-4.375-2.367-4.857l-3.832-.93-4.571 17.648c-1.167 4.506.666 5.277.937 5.39l-11.304-3.176c.453.075 2.131.246 3.245-4.059l4.572-17.652-4.612-1.238c-2.535-.657-4.166 1.314-5.37 2.977l-.039-.011-1.685-.574 4.555-7.527 23.659 6.128z" fill-rule="nonzero" transform="matrix(4.166667 0 0 4.166667 968.5990056181 383.7689208543)"/><path d="m0-6.442h-3.258v2.167h3.054v1.628h-3.054v4.276h-1.89v-9.7h5.148z" fill-rule="nonzero" transform="matrix(4.166667 0 0 4.166667 411.1289610205 440.1439253643)"/><path d="m633.691 82.568h1.891v9.7h-1.891z" transform="matrix(-4.166667 0 0 4.166667 3066.177090091 62.481811818)"/><path d="m0-9.7v8.071h2.996v1.629h-4.887v-9.7z" fill-rule="nonzero" transform="matrix(4.166667 0 0 4.166667 442.8889635613 446.9322592407)"/><path d="m0-9.7h1.367l2.574 6.166 2.69-6.166h1.368l1.628 9.7h-1.919l-.873-5.977-2.603 5.977h-.64l-2.487-5.977-.989 5.977h-1.919z" fill-rule="nonzero" transform="matrix(4.166667 0 0 4.166667 466.2843820996 446.9322592407)"/><path d="m0-6.442h-3.258v2.167h3.054v1.628h-3.054v4.276h-1.89v-9.7h5.148z" fill-rule="nonzero" transform="matrix(4.166667 0 0 4.166667 535.0073042641 440.1439253643)"/><path d="m0-6.442h-3.49v2.167h3.345v1.628h-3.345v2.647h3.49v1.629h-5.381v-9.7h5.381z" fill-rule="nonzero" transform="matrix(4.166667 0 0 4.166667 564.2198066011 440.1439253643)"/><path d="m0-5.278c-.567-.756-1.236-.829-1.586-.829-1.017 0-1.337.64-1.337 1.134 0 .233.073.451.305.654.233.219.553.335 1.164.553.756.262 1.469.524 1.963.974.437.393.829 1.048.829 2.036 0 1.891-1.367 3.185-3.374 3.185-1.788 0-2.835-1.09-3.345-1.832l1.236-1.178c.465.946 1.353 1.295 2.036 1.295.858 0 1.498-.524 1.498-1.338 0-.349-.116-.626-.378-.873-.364-.335-.946-.523-1.497-.713-.51-.174-1.121-.407-1.615-.843-.32-.277-.77-.815-.77-1.804 0-1.425.959-2.85 3.111-2.85.611 0 1.76.116 2.749 1.134z" fill-rule="nonzero" transform="matrix(4.166667 0 0 4.166667 591.735225469 437.7176751702)"/><path d="m0-6.442v8.071h-1.891v-8.071h-2.181v-1.629h6.253v1.629z" fill-rule="nonzero" transform="matrix(4.166667 0 0 4.166667 616.3427274376 440.1439253643)"/><path d="m684.687 82.568h1.891v9.7h-1.891z" transform="matrix(-4.166667 0 0 4.166667 3491.143790755 62.481811818)"/><path d="m0-9.7 2.589 6.515 2.588-6.515h2.065l-4.101 9.7h-1.134l-4.072-9.7z" fill-rule="nonzero" transform="matrix(4.166667 0 0 4.166667 651.614396926 446.9322592407)"/><path d="m0 2.544-1.382-3.49-1.382 3.49zm.552 1.542h-3.912l-.858 2.036h-2.05l4.174-9.7h1.483l4.057 9.7h-2.036z" fill-rule="nonzero" transform="matrix(4.166667 0 0 4.166667 704.4023178157 421.4243405334)"/><path d="m0-9.7v8.071h2.996v1.629h-4.887v-9.7z" fill-rule="nonzero" transform="matrix(4.166667 0 0 4.166667 731.3744033068 446.9322592407)"/></g><path d="m0-29.405 10.654-2.443c-.314.114-2.31 1.084-2.766 6.348l-2.065 23.158-5.632 1.292-8.028-13.254-1.654 15.474-5.55 1.273-12.28-20.082c-2.648-4.296-4.785-4.318-5.209-4.306l12.72-2.917c-.233.096-1.424.668-.96 2.693.149.648.466 1.471 1.072 2.441l6.369 10.479 1.542-11.867-.46-.705c-2.31-3.564-3.534-3.88-3.755-3.914l11.059-2.537c-.233.097-1.657.764-1.156 2.952.139.608.478 1.34 1.025 2.238l6.319 10.448 1.095-12.148c.091-1.087.027-1.925-.121-2.573-.465-2.026-1.886-2.084-2.219-2.05" fill="#de2526" fill-rule="nonzero" transform="matrix(4.166667 0 0 4.166667 290.401868029 392.2376715318)"/><path d="m0 28.888c-3.281.14-6.594-.508-8.766-1.664l-.374-8.761c2.43 4.305 5.728 5.537 8.926 5.4 2.408-.103 4.111-1.132 4.043-2.71-.108-2.533-4.096-3.361-7.705-5.079-2.761-1.338-5.381-3.264-5.541-7.001-.247-5.773 4.447-8.844 10.261-9.092 2.824-.121 5.557.553 7.222 1.563l.317 7.391c-1.474-2.35-4.836-4.119-7.66-3.999-2.574.111-3.527 1.191-3.471 2.478.08 1.869 2.53 2.763 5.364 3.848 3.723 1.463 7.965 3.362 8.187 8.553.25 5.855-4.782 8.816-10.803 9.073" fill="#de2526" fill-rule="nonzero" transform="matrix(4.166667 0 0 4.166667 499.0598013883 243.435992961)"/><path d="m0-17.964-4.736-.131-.189 6.814 4.113.114c2.949.081 3.399-1.112 3.447-1.36l-.209 7.561c-.038-.167-.459-1.468-3.326-1.547l-4.154-.115-.186 6.689c-.12 4.321 1.652 4.91 2.108 4.964l-12.007-.333c.334-.032 2.506-.429 2.634-5.041l.49-17.657c.12-4.321-2.399-4.931-2.772-4.983l20.316.563-.235 8.476c-.576-1.721-1.638-3.913-5.294-4.014" fill="#de2526" fill-rule="nonzero" transform="matrix(4.166667 0 0 4.166667 618.7702276318 339.823500672)"/><path d="m0 29.615-20.182-2.022c.335-.008 2.539-.33 3.028-5.21l1.716-17.121c.439-4.384-2.113-5.183-2.481-5.262l20.347 2.039-.853 8.519c-.426-2.006-1.344-4.103-4.942-4.463l-4.797-.481-.679 6.783 4.342.435c2.853.286 3.425-.827 3.532-1.067l-.746 7.444s-.065-1.426-3.167-1.737l-4.425-.443-.684 6.823 5.293.531c3.433.344 5.079-.661 7.069-3.428z" fill="#de2526" fill-rule="nonzero" transform="matrix(4.166667 0 0 4.166667 728.9402364454 247.0201599144)"/><path d="m0 25.069-1.61.202-18.674 2.226c.325-.08 2.769-.52 2.194-5.391l-2.018-17.088c-.517-4.376-3.181-4.605-3.557-4.602l18.498-2.598 1.643-.246.905 9.484c-.503-.265-.954-.423-1.544-.735-.629-1.891-2.062-4.095-4.047-3.861l-4.788.566.868 7.536 4.335-.512c.767-.09 1.268-.861 1.409-2.002 1.236-.17 1.451-.195 1.655-.215l.775 7.41s-.737.105-1.553.235c-.288-.968-.976-1.458-1.779-1.363l-4.417.522.926 7.359 5.283-.624c2.171-.256 3.548-2.724 4.353-5.07.585-.177.881-.269 1.731-.615z" fill="#1e1d1d" fill-rule="nonzero" transform="matrix(4.166667 0 0 4.166667 453.8968811086 259.4272442403)"/><path d="m0 25.072-20.143 2.379c.325-.08 2.408-.87 1.833-5.741l-2.018-17.088c-.517-4.375-3.18-4.605-3.557-4.602l20.308-2.399 1.004 8.503c-.848-1.867-2.197-3.716-5.787-3.292l-4.789.565.8 6.769 4.334-.511c2.848-.337 3.166-1.546 3.219-1.804l.877 7.43s-.372-1.379-3.468-1.013l-4.416.522.804 6.81 5.283-.624c3.426-.405 4.817-1.741 6.163-4.871z" fill="#de2526" fill-rule="nonzero" transform="matrix(4.166667 0 0 4.166667 447.2697972451 260.2476609726)"/><path d="m0 28.003c-3.233-.571-6.328-1.92-8.198-3.516l1.525-8.635c1.444 4.728 4.397 6.643 7.548 7.2 2.374.419 4.258-.219 4.533-1.774.441-2.496-3.273-4.165-6.426-6.621-2.407-1.902-4.549-4.349-3.899-8.032 1.005-5.688 6.252-7.673 11.981-6.661 2.782.492 5.305 1.739 6.713 3.085l-1.287 7.285c-.931-2.613-3.831-5.066-6.614-5.558-2.537-.448-3.7.402-3.925 1.67-.325 1.842 1.875 3.243 4.407 4.914 3.319 2.232 7.05 5.001 6.147 10.117-1.02 5.77-6.571 7.574-12.505 6.526" fill="#de2526" fill-rule="nonzero" transform="matrix(4.166667 0 0 4.166667 779.6398238347 264.5097446469)"/><path d="m0-2.165c-.285-2.049-.699-4.26-4.201-5.166l-3.781-.98-4.513 17.422c-1.167 4.506.671 5.369.942 5.482l-11.507-2.981c.452.075 2.329-.04 3.443-4.345l4.513-17.423-4.748-1.229c-2.535-.657-3.971 1.075-5.174 2.738l-.04-.01 2.87-8.101 23.659 6.127z" fill="#de2526" fill-rule="nonzero" transform="matrix(4.166667 0 0 4.166667 955.3173378889 346.4435012016)"/></svg>