<svg clip-rule="evenodd" fill-rule="evenodd" stroke-linejoin="round" stroke-miterlimit="2" viewBox="0 0 787 501" xmlns="http://www.w3.org/2000/svg"><g fill="#d62328" fill-rule="nonzero"><path d="m0-49.133c-.751.736-1.518 1.623-2.299 2.599-2.118 2.66-4.312 6.206-6.416 10.969-.345.796-.691 1.638-1.036 2.509-.331.797-.646 1.623-.962 2.479-.376 1.052-.751 2.104-1.127 3.246l-8.88 27.331h-15.927v-14.184l4.568-13.989c.285-.916.541-1.803.766-2.689.241-.887.436-1.758.616-2.599.18-.902.331-1.774.451-2.615.225-1.532.361-3.005.361-4.372 0-2.404-.391-4.388-.992-6.086-.346-.961-.736-1.848-1.202-2.599z" transform="matrix(4.166667 0 0 4.166667 758.2194136767 204.7213414567)"/><path d="m0-27.887-9.075 27.887v-27.887z" transform="matrix(4.166667 0 0 4.166667 643.3385711529 408.8159411176)"/><path d="m0-66.563v72.798c0 .631-.03 1.202-.045 1.803-.075 2.434-.286 4.613-.601 6.521l-19.803-59.966-24.882 72.182h-22.043l-33.281-99.288c-3.651-10.758-7.918-17.099-11.735-20.825h42.057c-1.127 1.953-1.909 4.628-1.909 8.294 0 3.831.812 8.114 2.419 12.726l19.818 59.696 21.743-58.674-1.653-4.478c-3.201-8.789-6.131-14.229-8.565-17.564h36.647c-.255.375-.466.796-.676 1.217-.451.886-.857 1.833-1.142 2.915-.406 1.502-.646 3.185-.646 5.093 0 3.126.766 6.852 2.389 11.75z" transform="matrix(4.166667 0 0 4.166667 468.2918904825 388.9101061918)"/><path d="m0-21.667v21.081c-2.66-1.503-6.656-2.69-12.637-2.69h-21.44v32.906c0 1.803.089 3.425.21 4.973.18 2.194.466 4.147.841 5.875.842 3.892 2.104 6.731 3.516 8.745h-37.548c.766-.977 1.487-2.149 2.133-3.516.556-1.142 1.052-2.419 1.473-3.862.451-1.487.811-3.185 1.097-5.048.345-2.374.57-5.049.57-8.114v-79.98c0-7.107-1.442-12.141-3.44-15.777.586-1.667 1.427-2.9 2.329-3.816h32.695c.646.676 1.232 1.532 1.728 2.599.691 1.548 1.172 3.516 1.172 6.086 0 1.292-.135 2.764-.376 4.372-.135.826-.3 1.698-.496 2.614h-5.904v36.076h21.245c6.116 0 10.157-1.097 12.832-2.524" transform="matrix(4.166667 0 0 4.166667 736.6206619488 295.3763487091)"/><path d="m0-25.183v25.183c-2.99-3.907-7.317-7.167-13.793-8.655.33-.842.676-1.668 1.036-2.434 2.42-5.364 4.929-9.015 7.198-11.495.992-1.066 1.938-1.923 2.825-2.599z" transform="matrix(4.166667 0 0 4.166667 786.0160825671 104.9296668067)"/></g></svg>