<?xml version="1.0" encoding="UTF-8" standalone="no"?>
<!DOCTYPE svg PUBLIC "-//W3C//DTD SVG 1.1//EN" "http://www.w3.org/Graphics/SVG/1.1/DTD/svg11.dtd">
<svg width="100%" height="100%" viewBox="0 0 1584 398" version="1.1" xmlns="http://www.w3.org/2000/svg" xmlns:xlink="http://www.w3.org/1999/xlink" xml:space="preserve" xmlns:serif="http://www.serif.com/" style="fill-rule:evenodd;clip-rule:evenodd;stroke-linejoin:round;stroke-miterlimit:2;">
    <g transform="matrix(1,0,0,1,-179.090833,-6694.72085)">
        <g transform="matrix(4.166667,0,0,4.166667,0,0)">
            <g id="Logo-big" serif:id="Logo big">
                <g transform="matrix(1,0,0,1,109.6241,1674.2518)">
                    <path d="M0,-54.045L17.372,-59.937L21.317,-60.823C20.705,-60.6 16.234,-56.689 15.347,-46.448L11.328,-3.338L7.973,-2.53L0.372,-0.826L-15.247,-24.665L-18.611,3.197L-21.82,4.302L-32.617,6.778L-53.153,-31.154C-58.305,-39.513 -62.464,-39.555 -63.288,-39.532L-54.328,-43.493L-41.896,-46.344L-38.681,-47.154C-39.135,-46.967 -41.312,-43.907 -40.408,-39.967C-40.119,-38.706 -39.503,-37.105 -38.324,-35.219L-25.932,-14.832L-22.932,-37.918L-23.827,-39.29C-28.321,-46.224 -30.702,-46.839 -31.132,-46.906L-12.971,-52.978L-9.272,-53.941C-9.726,-53.753 -12.841,-50.354 -11.866,-46.098C-11.595,-44.915 -10.936,-43.49 -9.871,-41.743L2.421,-21.417L4.552,-45.051C4.73,-47.166 4.605,-48.796 4.316,-50.058C3.412,-53.998 0.649,-54.111 0,-54.045" style="fill:rgb(30,29,29);fill-rule:nonzero;"/>
                </g>
                <g transform="matrix(1,0,0,1,207.0517,1607.9358)">
                    <path d="M0,56.202C-6.382,56.475 -12.829,55.213 -17.054,52.965L-21.138,34.781L-19.87,32.45C-15.142,40.827 -6.639,46.693 -0.417,46.426C4.268,46.226 7.581,44.223 7.45,41.153C7.239,36.225 -0.518,34.614 -7.54,31.272C-12.912,28.669 -18.01,24.921 -18.321,17.651C-18.801,6.421 -9.668,0.446 1.642,-0.038C7.136,-0.273 12.609,1.642 15.848,3.607L16.498,18.765C15.21,17.856 14.021,17.051 12.954,16.246C11.145,12.345 5.276,9.438 1.407,9.604C-3.602,9.818 -5.455,11.92 -5.347,14.425C-5.191,18.061 -0.424,19.799 5.09,21.911C12.333,24.757 20.586,28.451 21.017,38.55C21.504,49.941 11.715,55.701 0,56.202" style="fill:rgb(30,29,29);fill-rule:nonzero;"/>
                </g>
                <g transform="matrix(1,0,0,1,262.9474,1653.4747)">
                    <path d="M0,-37.004L-9.214,-37.259L-9.582,-22.482L-1.58,-22.26C-0.099,-22.219 1.635,-25.147 1.772,-26.042C3.122,-26.135 3.982,-26.379 4.992,-26.541L4.585,-9.731C4.16,-9.976 3.359,-10.372 1.364,-11.332C1.005,-13.324 -0.227,-15.038 -1.75,-15.081L-9.833,-15.305L-10.193,-0.415C-10.428,7.991 -4.852,7.999 -3.54,8.331L-9.449,8.106L-29.303,7.387C-28.653,7.324 -24.577,7.76 -24.328,-1.212L-23.376,-35.564C-23.143,-43.971 -28.043,-45.158 -28.768,-45.259L10.792,-45.335L10.301,-27.637C8.996,-28.119 8.275,-28.323 6.944,-28.811C6.518,-32.299 3.951,-36.894 0,-37.004" style="fill:rgb(30,29,29);fill-rule:nonzero;"/>
                </g>
                <g transform="matrix(1,0,0,1,313.8503,1609.6104)">
                    <path d="M0,56.799L-2.854,56.474L-39.265,52.866C-38.613,52.85 -33.786,53.039 -32.835,43.545L-29.497,10.235C-28.643,1.706 -33.607,0.152 -34.323,0L1.907,2.828L5.134,3.05L2.872,21.446C2.027,20.732 1.238,20.244 0.247,19.402C-0.153,15.546 -1.951,10.758 -5.82,10.37L-15.154,9.435L-16.667,24.117L-8.218,24.963C-6.723,25.113 -5.447,23.859 -4.701,21.751C-2.281,21.946 -1.861,21.99 -1.465,22.037L-3.104,36.438C-3.104,36.438 -4.547,36.329 -6.153,36.234C-6.293,34.273 -7.395,33.054 -8.96,32.897L-17.569,32.035L-18.9,46.404L-8.601,47.436C-4.368,47.86 -0.718,43.749 1.796,39.63C2.982,39.54 3.583,39.49 5.343,39.188L0,56.799Z" style="fill:rgb(30,29,29);fill-rule:nonzero;"/>
                </g>
                <g transform="matrix(1,0,0,1,338.0615,1617.777)">
                    <path d="M0,54.479C-6.289,53.368 -12.312,50.744 -15.95,47.639L-16.342,29.787L-14.895,27.717C-12.087,36.915 -4.428,43.763 1.703,44.846C6.321,45.661 9.987,44.421 10.521,41.396C11.379,36.539 4.153,33.292 -1.981,28.514C-6.664,24.813 -10.83,20.054 -9.566,12.889C-7.61,1.822 2.596,-2.04 13.743,-0.071C19.157,0.886 23.47,4.615 26.21,7.234L22.832,23.361C22.096,21.319 21.761,20.65 20.944,18.965C19.562,14.314 14.618,9.854 11.432,9.291C6.496,8.419 4.233,10.072 3.797,12.54C3.164,16.122 7.444,18.849 12.37,22.1C18.828,26.443 26.086,31.83 24.328,41.782C22.345,53.008 11.545,56.519 0,54.479" style="fill:rgb(30,29,29);fill-rule:nonzero;"/>
                </g>
                <g transform="matrix(1,0,0,1,422.9361,1672.3243)">
                    <path d="M0,-36.974L-3.2,-19.249C-4.384,-20.327 -4.767,-20.641 -6.202,-21.642M-3.2,-19.249C-4.457,-20.467 -4.767,-20.641 -6.202,-21.642C-6.275,-24.76 -7.184,-30.153 -10.807,-31.091L-18.263,-32.9L-27.155,1.434C-29.426,10.201 -25.86,11.701 -25.332,11.921L-47.324,5.742C-46.444,5.887 -43.18,6.221 -41.011,-2.155L-32.116,-36.497L-41.09,-38.907C-46.022,-40.184 -49.195,-36.35 -51.536,-33.114L-51.614,-33.135L-54.891,-34.252L-46.029,-48.895L0,-36.974L-3.2,-19.249Z" style="fill:rgb(30,29,29);fill-rule:nonzero;"/>
                </g>
                <g transform="matrix(1,0,0,1,162.6393,1698.6458)">
                    <path d="M0,-12.533L-6.338,-12.533L-6.338,-8.318L-0.396,-8.318L-0.396,-5.149L-6.338,-5.149L-6.338,3.169L-10.016,3.169L-10.016,-15.702L0,-15.702L0,-12.533Z" style="fill:rgb(30,29,29);fill-rule:nonzero;"/>
                </g>
                <g transform="matrix(-1,0,0,1,335.3,1526.469)">
                    <rect x="165.811" y="156.475" width="3.678" height="18.871" style="fill:rgb(30,29,29);"/>
                </g>
                <g transform="matrix(1,0,0,1,177.4689,1701.815)">
                    <path d="M0,-18.871L0,-3.169L5.828,-3.169L5.828,0L-3.678,0L-3.678,-18.871L0,-18.871Z" style="fill:rgb(30,29,29);fill-rule:nonzero;"/>
                </g>
                <g transform="matrix(1,0,0,1,188.3927,1701.815)">
                    <path d="M0,-18.871L2.66,-18.871L7.667,-6.875L12.902,-18.871L15.561,-18.871L18.73,0L14.995,0L13.298,-11.628L8.233,0L6.988,0L2.15,-11.628L0.226,0L-3.508,0L0,-18.871Z" style="fill:rgb(30,29,29);fill-rule:nonzero;"/>
                </g>
                <g transform="matrix(1,0,0,1,220.4813,1698.6458)">
                    <path d="M0,-12.533L-6.338,-12.533L-6.338,-8.318L-0.396,-8.318L-0.396,-5.149L-6.338,-5.149L-6.338,3.169L-10.016,3.169L-10.016,-15.702L0,-15.702L0,-12.533Z" style="fill:rgb(30,29,29);fill-rule:nonzero;"/>
                </g>
                <g transform="matrix(1,0,0,1,234.1213,1698.6458)">
                    <path d="M0,-12.533L-6.79,-12.533L-6.79,-8.318L-0.283,-8.318L-0.283,-5.149L-6.79,-5.149L-6.79,-0L0,-0L0,3.169L-10.469,3.169L-10.469,-15.702L0,-15.702L0,-12.533Z" style="fill:rgb(30,29,29);fill-rule:nonzero;"/>
                </g>
                <g transform="matrix(1,0,0,1,246.9691,1697.5126)">
                    <path d="M0,-10.268C-1.103,-11.739 -2.406,-11.881 -3.085,-11.881C-5.064,-11.881 -5.688,-10.636 -5.688,-9.674C-5.688,-9.222 -5.545,-8.797 -5.093,-8.402C-4.64,-7.977 -4.018,-7.751 -2.829,-7.325C-1.358,-6.818 0.029,-6.307 0.99,-5.431C1.84,-4.667 2.603,-3.393 2.603,-1.469C2.603,2.209 -0.057,4.726 -3.961,4.726C-7.44,4.726 -9.478,2.605 -10.469,1.162L-8.064,-1.13C-7.159,0.71 -5.432,1.389 -4.103,1.389C-2.433,1.389 -1.188,0.37 -1.188,-1.214C-1.188,-1.893 -1.415,-2.431 -1.924,-2.912C-2.632,-3.563 -3.764,-3.93 -4.837,-4.299C-5.828,-4.638 -7.017,-5.091 -7.979,-5.94C-8.601,-6.478 -9.478,-7.524 -9.478,-9.448C-9.478,-12.221 -7.612,-14.994 -3.424,-14.994C-2.235,-14.994 0,-14.767 1.924,-12.787L0,-10.268Z" style="fill:rgb(30,29,29);fill-rule:nonzero;"/>
                </g>
                <g transform="matrix(1,0,0,1,258.4588,1698.6458)">
                    <path d="M0,-12.533L0,3.169L-3.678,3.169L-3.678,-12.533L-7.922,-12.533L-7.922,-15.702L4.244,-15.702L4.244,-12.533L0,-12.533Z" style="fill:rgb(30,29,29);fill-rule:nonzero;"/>
                </g>
                <g transform="matrix(-1,0,0,1,533.726,1526.469)">
                    <rect x="265.024" y="156.475" width="3.678" height="18.871" style="fill:rgb(30,29,29);"/>
                </g>
                <g transform="matrix(1,0,0,1,274.9281,1701.815)">
                    <path d="M0,-18.871L5.036,-6.196L10.072,-18.871L14.09,-18.871L6.111,0L3.904,0L-4.018,-18.871L0,-18.871Z" style="fill:rgb(30,29,29);fill-rule:nonzero;"/>
                </g>
                <g transform="matrix(1,0,0,1,299.5762,1689.9038)">
                    <path d="M0,4.951L-2.689,-1.839L-5.377,4.951L0,4.951ZM1.074,7.95L-6.536,7.95L-8.206,11.911L-12.195,11.911L-4.074,-6.96L-1.19,-6.96L6.705,11.911L2.744,11.911L1.074,7.95Z" style="fill:rgb(30,29,29);fill-rule:nonzero;"/>
                </g>
                <g transform="matrix(1,0,0,1,312.17,1701.815)">
                    <path d="M0,-18.871L0,-3.169L5.828,-3.169L5.828,0L-3.678,0L-3.678,-18.871L0,-18.871Z" style="fill:rgb(30,29,29);fill-rule:nonzero;"/>
                </g>
                <g transform="matrix(1,0,0,1,106.2688,1676.2773)">
                    <path d="M0,-57.208L20.728,-61.961C20.116,-61.738 16.234,-59.852 15.347,-49.611L11.328,-4.555L0.372,-2.043L-15.247,-27.828L-18.464,2.277L-29.262,4.753L-53.153,-34.317C-58.305,-42.676 -62.464,-42.718 -63.287,-42.695L-38.541,-48.37C-38.995,-48.182 -41.312,-47.07 -40.408,-43.13C-40.119,-41.869 -39.503,-40.268 -38.324,-38.382L-25.932,-17.995L-22.932,-41.081L-23.827,-42.453C-28.321,-49.387 -30.702,-50.002 -31.132,-50.069L-9.616,-55.003C-10.07,-54.816 -12.841,-53.517 -11.866,-49.261C-11.595,-48.078 -10.936,-46.653 -9.871,-44.906L2.421,-24.58L4.552,-48.214C4.73,-50.329 4.605,-51.959 4.316,-53.221C3.412,-57.161 0.649,-57.274 0,-57.208" style="fill:rgb(222,37,38);fill-rule:nonzero;"/>
                </g>
                <g transform="matrix(1,0,0,1,203.6965,1606.7982)">
                    <path d="M0,56.202C-6.382,56.475 -12.829,55.213 -17.054,52.965L-17.783,35.919C-13.054,44.296 -6.639,46.693 -0.417,46.426C4.268,46.226 7.581,44.223 7.45,41.153C7.239,36.225 -0.518,34.614 -7.54,31.272C-12.912,28.669 -18.01,24.921 -18.321,17.651C-18.801,6.421 -9.668,0.446 1.642,-0.038C7.136,-0.273 12.453,1.038 15.693,3.003L16.309,17.384C13.441,12.812 6.901,9.369 1.407,9.604C-3.602,9.818 -5.455,11.92 -5.347,14.425C-5.191,18.061 -0.424,19.799 5.09,21.911C12.333,24.757 20.586,28.451 21.017,38.55C21.504,49.941 11.715,55.701 0,56.202" style="fill:rgb(222,37,38);fill-rule:nonzero;"/>
                </g>
                <g transform="matrix(1,0,0,1,259.5922,1651.8045)">
                    <path d="M0,-34.95L-9.214,-35.205L-9.582,-21.949L-1.58,-21.727C4.158,-21.568 5.032,-23.89 5.127,-24.372L4.719,-9.662C4.647,-9.987 3.827,-12.517 -1.75,-12.672L-9.833,-12.896L-10.193,0.117C-10.428,8.524 -6.981,9.67 -6.094,9.776L-29.454,9.128C-28.804,9.065 -24.577,8.293 -24.328,-0.679L-23.376,-35.032C-23.143,-43.438 -28.043,-44.625 -28.768,-44.726L10.757,-43.63L10.299,-27.141C9.179,-30.489 7.113,-34.753 0,-34.95" style="fill:rgb(222,37,38);fill-rule:nonzero;"/>
                </g>
                <g transform="matrix(1,0,0,1,311.0334,1608.4722)">
                    <path d="M0,57.616L-39.264,53.683C-38.613,53.667 -34.324,53.04 -33.373,43.546L-30.036,10.236C-29.182,1.707 -34.145,0.153 -34.861,0L4.724,3.966L3.064,20.541C2.236,16.638 0.45,12.559 -6.55,11.857L-15.884,10.922L-17.205,24.117L-8.756,24.964C-3.206,25.52 -2.094,23.355 -1.884,22.889L-3.336,37.372C-3.336,37.372 -3.464,34.596 -9.499,33.991L-18.108,33.129L-19.438,46.405L-9.139,47.436C-2.461,48.106 0.742,46.151 4.612,40.768L0,57.616Z" style="fill:rgb(222,37,38);fill-rule:nonzero;"/>
                </g>
                <g transform="matrix(1,0,0,1,182.6088,1614.2641)">
                    <path d="M0,48.773L-3.132,49.166L-39.463,53.496C-38.831,53.341 -34.076,52.484 -35.195,43.008L-39.121,9.763C-40.127,1.251 -45.309,0.804 -46.041,0.809L-10.053,-4.244L-6.855,-4.723L-5.095,13.728C-6.075,13.213 -6.951,12.906 -8.1,12.299C-9.322,8.619 -12.111,4.332 -15.972,4.788L-25.288,5.888L-23.598,20.55L-15.166,19.554C-13.674,19.378 -12.699,17.878 -12.425,15.659C-10.019,15.327 -9.6,15.279 -9.203,15.24L-7.697,29.656C-7.697,29.656 -9.13,29.861 -10.718,30.114C-11.278,28.23 -12.617,27.277 -14.18,27.462L-22.772,28.477L-20.972,42.794L-10.693,41.58C-6.468,41.082 -3.79,36.28 -2.225,31.716C-1.086,31.372 -0.509,31.193 1.144,30.519L0,48.773Z" style="fill:rgb(30,29,29);fill-rule:nonzero;"/>
                </g>
                <g transform="matrix(1,0,0,1,179.5144,1614.6481)">
                    <path d="M0,48.778L-39.189,53.406C-38.556,53.251 -34.503,51.713 -35.622,42.237L-39.548,8.992C-40.554,0.48 -45.736,0.033 -46.468,0.038L-6.959,-4.628L-5.006,11.915C-6.656,8.282 -9.279,4.684 -16.265,5.509L-25.582,6.609L-24.026,19.779L-15.593,18.783C-10.053,18.129 -9.434,15.776 -9.331,15.275L-7.624,29.73C-7.624,29.73 -8.348,27.047 -14.371,27.758L-22.963,28.773L-21.399,42.023L-11.12,40.809C-4.454,40.022 -1.748,37.422 0.87,31.332L0,48.778Z" style="fill:rgb(222,37,38);fill-rule:nonzero;"/>
                </g>
                <g transform="matrix(1,0,0,1,334.7063,1616.6394)">
                    <path d="M0,54.479C-6.289,53.368 -12.312,50.744 -15.95,47.639L-12.982,30.84C-10.174,40.038 -4.428,43.763 1.703,44.846C6.321,45.661 9.987,44.421 10.521,41.396C11.379,36.539 4.153,33.292 -1.981,28.514C-6.664,24.813 -10.83,20.054 -9.566,12.889C-7.61,1.822 2.596,-2.04 13.743,-0.071C19.157,0.886 24.064,3.312 26.804,5.931L24.299,20.103C22.489,15.02 16.846,10.247 11.432,9.291C6.496,8.419 4.233,10.072 3.797,12.54C3.164,16.123 7.444,18.849 12.37,22.1C18.828,26.443 26.086,31.83 24.328,41.782C22.345,53.008 11.545,56.519 0,54.479" style="fill:rgb(222,37,38);fill-rule:nonzero;"/>
                </g>
                <g transform="matrix(1,0,0,1,416.7345,1654.8948)">
                    <path d="M0,-4.212C-0.554,-8.198 -1.361,-12.5 -8.172,-14.263L-15.53,-16.17L-24.309,17.726C-26.58,26.493 -23.004,28.171 -22.477,28.391L-44.864,22.592C-43.984,22.737 -40.333,22.513 -38.164,14.137L-29.386,-19.758L-38.622,-22.15C-43.555,-23.428 -46.348,-20.058 -48.689,-16.822L-48.767,-16.843L-43.182,-32.603L2.846,-20.682L0,-4.212Z" style="fill:rgb(222,37,38);fill-rule:nonzero;"/>
                </g>
            </g>
        </g>
    </g>
</svg>
