<svg clip-rule="evenodd" fill-rule="evenodd" stroke-linejoin="round" stroke-miterlimit="2" viewBox="0 0 1584 398" xmlns="http://www.w3.org/2000/svg"><g fill="#1e1d1d"><path d="m0-54.045 17.372-5.892 3.945-.886c-.612.223-5.083 4.134-5.97 14.375l-4.019 43.11-3.355.808-7.601 1.704-15.619-23.839-3.364 27.862-3.209 1.105-10.797 2.476-20.536-37.932c-5.152-8.359-9.311-8.401-10.135-8.378l8.96-3.961 12.432-2.851 3.215-.81c-.454.187-2.631 3.247-1.727 7.187.289 1.261.905 2.862 2.084 4.748l12.392 20.387 3-23.086-.895-1.372c-4.494-6.934-6.875-7.549-7.305-7.616l18.161-6.072 3.699-.963c-.454.188-3.569 3.587-2.594 7.843.271 1.183.93 2.608 1.995 4.355l12.292 20.326 2.131-23.634c.178-2.115.053-3.745-.236-5.007-.904-3.94-3.667-4.053-4.316-3.987" fill-rule="nonzero" transform="matrix(4.166667 0 0 4.166667 277.6762868747 281.3288747506)"/><path d="m0 56.202c-6.382.273-12.829-.989-17.054-3.237l-4.084-18.184 1.268-2.331c4.728 8.377 13.231 14.243 19.453 13.976 4.685-.2 7.998-2.203 7.867-5.273-.211-4.928-7.968-6.539-14.99-9.881-5.372-2.603-10.47-6.351-10.781-13.621-.48-11.23 8.653-17.205 19.963-17.689 5.494-.235 10.967 1.68 14.206 3.645l.65 15.158c-1.288-.909-2.477-1.714-3.544-2.519-1.809-3.901-7.678-6.808-11.547-6.642-5.009.214-6.862 2.316-6.754 4.821.156 3.636 4.923 5.374 10.437 7.486 7.243 2.846 15.496 6.54 15.927 16.639.487 11.391-9.302 17.151-21.017 17.652" fill-rule="nonzero" transform="matrix(4.166667 0 0 4.166667 683.6246526839 5.0121859786)"/><path d="m0-37.004-9.214-.255-.368 14.777 8.002.222c1.481.041 3.215-2.887 3.352-3.782 1.35-.093 2.21-.337 3.22-.499l-.407 16.81c-.425-.245-1.226-.641-3.221-1.601-.359-1.992-1.591-3.706-3.114-3.749l-8.083-.224-.36 14.89c-.235 8.406 5.341 8.414 6.653 8.746l-5.909-.225-19.854-.719c.65-.063 4.726.373 4.975-8.599l.952-34.352c.233-8.407-4.667-9.594-5.392-9.695l39.56-.076-.491 17.698c-1.305-.482-2.026-.686-3.357-1.174-.426-3.488-2.993-8.083-6.944-8.193" fill-rule="nonzero" transform="matrix(4.166667 0 0 4.166667 916.5234213158 194.7576178249)"/><path d="m0 56.799-2.854-.325-36.411-3.608c.652-.016 5.479.173 6.43-9.321l3.338-33.31c.854-8.529-4.11-10.083-4.826-10.235l36.23 2.828 3.227.222-2.262 18.396c-.845-.714-1.634-1.202-2.625-2.044-.4-3.856-2.198-8.644-6.067-9.032l-9.334-.935-1.513 14.682 8.449.846c1.495.15 2.771-1.104 3.517-3.212 2.42.195 2.84.239 3.236.286l-1.639 14.401s-1.443-.109-3.049-.204c-.14-1.961-1.242-3.18-2.807-3.337l-8.609-.862-1.331 14.369 10.299 1.032c4.233.424 7.883-3.687 10.397-7.806 1.186-.09 1.787-.14 3.547-.442z" fill-rule="nonzero" transform="matrix(4.166667 0 0 4.166667 1128.6188549501 11.9896865368)"/><path d="m0 54.479c-6.289-1.111-12.312-3.735-15.95-6.84l-.392-17.852 1.447-2.07c2.808 9.198 10.467 16.046 16.598 17.129 4.618.815 8.284-.425 8.818-3.45.858-4.857-6.368-8.104-12.502-12.882-4.683-3.701-8.849-8.46-7.585-15.625 1.956-11.067 12.162-14.929 23.309-12.96 5.414.957 9.727 4.686 12.467 7.305l-3.378 16.127c-.736-2.042-1.071-2.711-1.888-4.396-1.382-4.651-6.326-9.111-9.512-9.674-4.936-.872-7.199.781-7.635 3.249-.633 3.582 3.647 6.309 8.573 9.56 6.458 4.343 13.716 9.73 11.958 19.682-1.983 11.226-12.783 14.737-24.328 12.697" fill-rule="nonzero" transform="matrix(4.166667 0 0 4.166667 1229.4988630205 46.017189259)"/><path d="m0-36.974-3.2 17.725c-1.184-1.078-1.567-1.392-3.002-2.393m3.002 2.393c-1.257-1.218-1.567-1.392-3.002-2.393-.073-3.118-.982-8.511-4.605-9.449l-7.456-1.809-8.892 34.334c-2.271 8.767 1.295 10.267 1.823 10.487l-21.992-6.179c.88.145 4.144.479 6.313-7.897l8.895-34.342-8.974-2.41c-4.932-1.277-8.105 2.557-10.446 5.793l-.078-.021-3.277-1.117 8.862-14.643 46.029 11.921z" fill-rule="nonzero" transform="matrix(4.166667 0 0 4.166667 1583.1430579787 273.2976241081)"/><path d="m0-12.533h-6.338v4.215h5.942v3.169h-5.942v8.318h-3.678v-18.871h10.016z" fill-rule="nonzero" transform="matrix(4.166667 0 0 4.166667 498.5729712131 382.9705495486)"/><path d="m165.811 156.475h3.678v18.871h-3.678z" transform="matrix(-4.166667 0 0 4.166667 1217.9926121 -334.432841177)"/><path d="m0-18.871v15.702h5.828v3.169h-9.506v-18.871z" fill-rule="nonzero" transform="matrix(4.166667 0 0 4.166667 560.3629761563 396.175550605)"/><path d="m0-18.871h2.66l5.007 11.996 5.235-11.996h2.659l3.169 18.871h-3.735l-1.697-11.628-5.065 11.628h-1.245l-4.838-11.628-1.924 11.628h-3.734z" fill-rule="nonzero" transform="matrix(4.166667 0 0 4.166667 605.8788131309 396.175550605)"/><path d="m0-12.533h-6.338v4.215h5.942v3.169h-5.942v8.318h-3.678v-18.871h10.016z" fill-rule="nonzero" transform="matrix(4.166667 0 0 4.166667 739.5813238271 382.9705495486)"/><path d="m0-12.533h-6.79v4.215h6.507v3.169h-6.507v5.149h6.79v3.169h-10.469v-18.871h10.469z" fill-rule="nonzero" transform="matrix(4.166667 0 0 4.166667 796.4146617071 382.9705495486)"/><path d="m0-10.268c-1.103-1.471-2.406-1.613-3.085-1.613-1.979 0-2.603 1.245-2.603 2.207 0 .452.143.877.595 1.272.453.425 1.075.651 2.264 1.077 1.471.507 2.858 1.018 3.819 1.894.85.764 1.613 2.038 1.613 3.962 0 3.678-2.66 6.195-6.564 6.195-3.479 0-5.517-2.121-6.508-3.564l2.405-2.292c.905 1.84 2.632 2.519 3.961 2.519 1.67 0 2.915-1.019 2.915-2.603 0-.679-.227-1.217-.736-1.698-.708-.651-1.84-1.018-2.913-1.387-.991-.339-2.18-.792-3.142-1.641-.622-.538-1.499-1.584-1.499-3.508 0-2.773 1.866-5.546 6.054-5.546 1.189 0 3.424.227 5.348 2.207z" fill-rule="nonzero" transform="matrix(4.166667 0 0 4.166667 849.9471659897 378.2488825042)"/><path d="m0-12.533v15.702h-3.678v-15.702h-4.244v-3.169h12.166v3.169z" fill-rule="nonzero" transform="matrix(4.166667 0 0 4.166667 897.8209198196 382.9705495486)"/><path d="m265.024 156.475h3.678v18.871h-3.678z" transform="matrix(-4.166667 0 0 4.166667 2044.767678242 -334.432841177)"/><path d="m0-18.871 5.036 12.675 5.036-12.675h4.018l-7.979 18.871h-2.207l-7.922-18.871z" fill-rule="nonzero" transform="matrix(4.166667 0 0 4.166667 966.4430086427 396.175550605)"/><path d="m0 4.951-2.689-6.79-2.688 6.79zm1.074 2.999h-7.61l-1.67 3.961h-3.989l8.121-18.871h2.884l7.895 18.871h-3.961z" fill-rule="nonzero" transform="matrix(4.166667 0 0 4.166667 1069.1434335254 346.5455466346)"/><path d="m0-18.871v15.702h5.828v3.169h-9.506v-18.871z" fill-rule="nonzero" transform="matrix(4.166667 0 0 4.166667 1121.61760439 396.175550605)"/></g><path d="m0-57.208 20.728-4.753c-.612.223-4.494 2.109-5.381 12.35l-4.019 45.056-10.956 2.512-15.619-25.785-3.217 30.105-10.798 2.476-23.891-39.07c-5.152-8.359-9.311-8.401-10.134-8.378l24.746-5.675c-.454.188-2.771 1.3-1.867 5.24.289 1.261.905 2.862 2.084 4.748l12.392 20.387 3-23.086-.895-1.372c-4.494-6.934-6.875-7.549-7.305-7.616l21.516-4.934c-.454.187-3.225 1.486-2.25 5.742.271 1.183.93 2.608 1.995 4.355l12.292 20.326 2.131-23.634c.178-2.115.053-3.745-.236-5.007-.904-3.94-3.667-4.053-4.316-3.987" fill="#de2526" fill-rule="nonzero" transform="matrix(4.166667 0 0 4.166667 263.6958690896 289.7684587591)"/><path d="m0 56.202c-6.382.273-12.829-.989-17.054-3.237l-.729-17.046c4.729 8.377 11.144 10.774 17.366 10.507 4.685-.2 7.998-2.203 7.867-5.273-.211-4.928-7.968-6.539-14.99-9.881-5.372-2.603-10.47-6.351-10.781-13.621-.48-11.23 8.653-17.205 19.963-17.689 5.494-.235 10.811 1.076 14.051 3.041l.616 14.381c-2.868-4.572-9.408-8.015-14.902-7.78-5.009.214-6.862 2.316-6.754 4.821.156 3.636 4.923 5.374 10.437 7.486 7.243 2.846 15.496 6.54 15.927 16.639.487 11.391-9.302 17.151-21.017 17.652" fill="#de2526" fill-rule="nonzero" transform="matrix(4.166667 0 0 4.166667 669.6446515655 .2721855994)"/><path d="m0-34.95-9.214-.255-.368 13.256 8.002.222c5.738.159 6.612-2.163 6.707-2.645l-.408 14.71c-.072-.325-.892-2.855-6.469-3.01l-8.083-.224-.36 13.013c-.235 8.407 3.212 9.553 4.099 9.659l-23.36-.648c.65-.063 4.877-.835 5.126-9.807l.952-34.353c.233-8.406-4.667-9.593-5.392-9.694l39.525 1.096-.458 16.489c-1.12-3.348-3.186-7.612-10.299-7.809" fill="#de2526" fill-rule="nonzero" transform="matrix(4.166667 0 0 4.166667 902.5434201974 187.7984506015)"/><path d="m0 57.616-39.264-3.933c.651-.016 4.94-.643 5.891-10.137l3.337-33.31c.854-8.529-4.109-10.083-4.825-10.236l39.585 3.966-1.66 16.575c-.828-3.903-2.614-7.982-9.614-8.684l-9.334-.935-1.321 13.195 8.449.847c5.55.556 6.662-1.609 6.872-2.075l-1.452 14.483s-.128-2.776-6.163-3.381l-8.609-.862-1.33 13.276 10.299 1.031c6.678.67 9.881-1.285 13.751-6.668z" fill="#de2526" fill-rule="nonzero" transform="matrix(4.166667 0 0 4.166667 1116.8817706778 7.2471861574)"/><path d="m0 48.773-3.132.393-36.331 4.33c.632-.155 5.387-1.012 4.268-10.488l-3.926-33.245c-1.006-8.512-6.188-8.959-6.92-8.954l35.988-5.053 3.198-.479 1.76 18.451c-.98-.515-1.856-.822-3.005-1.429-1.222-3.68-4.011-7.967-7.872-7.511l-9.316 1.1 1.69 14.662 8.432-.996c1.492-.176 2.467-1.676 2.741-3.895 2.406-.332 2.825-.38 3.222-.419l1.506 14.416s-1.433.205-3.021.458c-.56-1.884-1.899-2.837-3.462-2.652l-8.592 1.015 1.8 14.317 10.279-1.214c4.225-.498 6.903-5.3 8.468-9.864 1.139-.344 1.716-.523 3.369-1.197z" fill="#1e1d1d" fill-rule="nonzero" transform="matrix(4.166667 0 0 4.166667 581.7792278696 31.3801047547)"/><path d="m0 48.778-39.189 4.628c.633-.155 4.686-1.693 3.567-11.169l-3.926-33.245c-1.006-8.512-6.188-8.959-6.92-8.954l39.509-4.666 1.953 16.543c-1.65-3.633-4.273-7.231-11.259-6.406l-9.317 1.1 1.556 13.17 8.433-.996c5.54-.654 6.159-3.007 6.262-3.508l1.707 14.455s-.724-2.683-6.747-1.972l-8.592 1.015 1.564 13.25 10.279-1.214c6.666-.787 9.372-3.387 11.99-9.477z" fill="#de2526" fill-rule="nonzero" transform="matrix(4.166667 0 0 4.166667 568.8858935048 32.9801048827)"/><path d="m0 54.479c-6.289-1.111-12.312-3.735-15.95-6.84l2.968-16.799c2.808 9.198 8.554 12.923 14.685 14.006 4.618.815 8.284-.425 8.818-3.45.858-4.857-6.368-8.104-12.502-12.882-4.683-3.701-8.849-8.46-7.585-15.625 1.956-11.067 12.162-14.929 23.309-12.96 5.414.957 10.321 3.383 13.061 6.002l-2.505 14.172c-1.81-5.083-7.453-9.856-12.867-10.812-4.936-.872-7.199.781-7.635 3.249-.633 3.583 3.647 6.309 8.573 9.56 6.458 4.343 13.716 9.73 11.958 19.682-1.983 11.226-12.783 14.737-24.328 12.697" fill="#de2526" fill-rule="nonzero" transform="matrix(4.166667 0 0 4.166667 1215.5188619021 41.2771888798)"/><path d="m0-4.212c-.554-3.986-1.361-8.288-8.172-10.051l-7.358-1.907-8.779 33.896c-2.271 8.767 1.305 10.445 1.832 10.665l-22.387-5.799c.88.145 4.531-.079 6.7-8.455l8.778-33.895-9.236-2.392c-4.933-1.278-7.726 2.092-10.067 5.328l-.078-.021 5.585-15.76 46.028 11.921z" fill="#de2526" fill-rule="nonzero" transform="matrix(4.166667 0 0 4.166667 1557.3030559115 200.6747016316)"/></svg>